<svg width="149.8" height="95.001" viewBox="0 0 149.8 95.001" xmlns="http://www.w3.org/2000/svg"><g id="svgGroup" stroke-linecap="round" fill-rule="evenodd" font-size="9pt" stroke="#000" stroke-width="0.25mm" fill="#000" style="stroke:#000;stroke-width:0.25mm;fill:#000"><path d="M 65.2 71.8 L 66.7 68 A 0.963 0.963 0 0 0 66.781 67.775 A 0.817 0.817 0 0 0 66.8 67.6 Q 66.8 67.4 66.6 67.4 L 66 67.6 A 133.973 133.973 0 0 0 61.399 72.448 A 167.551 167.551 0 0 0 58.15 76.15 Q 54.1 80.9 52 83.7 L 49.9 86.5 Q 47.9 89.6 45.25 91.9 A 21.142 21.142 0 0 1 44.15 92.797 Q 42.397 94.122 41.324 94.196 A 1.809 1.809 0 0 1 41.2 94.2 A 1.083 1.083 0 0 1 40.751 94.114 Q 40.288 93.905 40.214 93.19 A 2.824 2.824 0 0 1 40.2 92.9 Q 40.2 91.064 41.882 87.171 A 50.914 50.914 0 0 1 42 86.9 Q 43.8 82.8 45.6 79.6 L 47.4 76.4 L 62 50.3 A 1131.22 1131.22 0 0 1 70.647 35.191 Q 83.809 12.629 90.7 3.9 Q 93.028 0.874 94.273 0.196 A 1.356 1.356 0 0 1 94.9 0 Q 95.377 0 95.399 0.73 A 2.391 2.391 0 0 1 95.4 0.8 A 5.613 5.613 0 0 1 95.23 2.038 Q 94.758 4.065 92.976 7.812 A 90.046 90.046 0 0 1 92.2 9.4 A 25637.42 25637.42 0 0 1 85.158 22.13 Q 75.023 40.44 70.4 48.7 A 6502.89 6502.89 0 0 1 66.272 56.08 Q 59.51 68.145 56.991 72.486 A 126.463 126.463 0 0 1 56.1 74 L 56.1 74.4 A 0.666 0.666 0 0 0 56.108 74.506 Q 56.138 74.692 56.286 74.7 A 0.253 0.253 0 0 0 56.3 74.7 A 0.314 0.314 0 0 0 56.418 74.673 Q 56.587 74.603 56.844 74.356 A 4.17 4.17 0 0 0 56.9 74.3 L 61.6 69.2 A 503.336 503.336 0 0 1 65.902 64.683 Q 68.228 62.272 70.3 60.2 A 91.262 91.262 0 0 1 76.514 54.553 A 106.019 106.019 0 0 1 79 52.55 A 41.217 41.217 0 0 1 80.98 51.089 Q 84.303 48.8 86.1 48.8 A 1.465 1.465 0 0 1 86.939 49.032 Q 87.512 49.419 87.654 50.453 A 5.54 5.54 0 0 1 87.7 51.2 A 5.953 5.953 0 0 1 87.625 52.078 Q 87.482 53.025 87.066 54.382 A 34.466 34.466 0 0 1 86.7 55.5 Q 85.7 58.4 84.7 58.4 Q 84.325 58.4 84.038 57.522 A 5.226 5.226 0 0 1 84 57.4 Q 83.554 55.168 81.592 54.929 A 4.07 4.07 0 0 0 81.1 54.9 Q 78.281 54.9 75.806 59.334 A 26.104 26.104 0 0 0 74.8 61.35 A 63.305 63.305 0 0 0 71.956 68.869 A 51.588 51.588 0 0 0 70.7 73.85 A 148.205 148.205 0 0 0 70.232 76.308 Q 69.629 79.648 69.523 81.349 A 10.568 10.568 0 0 0 69.5 82 A 6.607 6.607 0 0 0 69.537 82.734 Q 69.62 83.47 69.887 83.837 A 0.838 0.838 0 0 0 70.6 84.2 A 1.934 1.934 0 0 0 71.2 84.094 Q 71.739 83.917 72.419 83.446 A 10.218 10.218 0 0 0 72.95 83.05 Q 73.936 82.269 75.152 81.095 A 55.937 55.937 0 0 0 76.35 79.9 Q 78.3 77.9 78.7 77.5 Q 81.916 74.285 86.714 68.9 A 469.371 469.371 0 0 0 89.8 65.4 A 1.997 1.997 0 0 1 89.935 65.276 Q 90.074 65.161 90.188 65.121 A 0.341 0.341 0 0 1 90.3 65.1 A 0.16 0.16 0 0 1 90.449 65.199 Q 90.489 65.277 90.498 65.416 A 1.347 1.347 0 0 1 90.5 65.5 A 5.089 5.089 0 0 1 89.914 67.836 A 7.379 7.379 0 0 1 89 69.2 Q 81.6 77.4 75.9 82.9 L 74.05 84.75 Q 73.016 85.784 72.305 86.466 A 50.07 50.07 0 0 1 71.9 86.85 A 132.871 132.871 0 0 0 71.469 87.257 Q 70.873 87.821 70.069 88.592 A 441.499 441.499 0 0 0 69.8 88.85 Q 68.5 90.1 67.6 90.8 A 55.712 55.712 0 0 1 66.416 91.695 A 66.995 66.995 0 0 1 65.65 92.25 Q 64.6 93 63.75 93.35 Q 63.166 93.591 62.7 93.666 A 2.514 2.514 0 0 1 62.3 93.7 Q 60.5 93.7 60.5 90.4 A 22.11 22.11 0 0 1 60.683 87.689 Q 61.033 84.875 62.05 81.2 Q 63.6 75.6 65.2 71.8 Z M 33.5 75.8 L 31.5 80.4 A 24.864 24.864 0 0 0 31.305 81.009 Q 31 82.01 31 82.4 Q 31 83.3 31.7 83.3 A 2.68 2.68 0 0 0 32.757 83.023 Q 34.933 82.048 39.352 77.648 A 93.567 93.567 0 0 0 39.5 77.5 Q 42.716 74.285 47.514 68.9 A 469.371 469.371 0 0 0 50.6 65.4 A 1.997 1.997 0 0 1 50.735 65.276 Q 50.874 65.161 50.988 65.121 A 0.341 0.341 0 0 1 51.1 65.1 A 0.16 0.16 0 0 1 51.249 65.199 Q 51.289 65.277 51.298 65.416 A 1.347 1.347 0 0 1 51.3 65.5 A 5.089 5.089 0 0 1 50.714 67.836 A 7.379 7.379 0 0 1 49.8 69.2 Q 42.4 77.4 36.7 82.9 A 196.696 196.696 0 0 1 32.332 86.911 Q 23.563 94.7 20.8 94.7 A 1.49 1.49 0 0 1 20.077 94.536 Q 19.3 94.112 19.3 92.6 A 11.257 11.257 0 0 1 19.375 91.338 A 14.879 14.879 0 0 1 19.55 90.2 A 14.051 14.051 0 0 1 19.881 88.86 Q 20.095 88.138 20.4 87.35 Q 20.813 86.285 21.154 85.456 A 54.201 54.201 0 0 1 21.45 84.75 A 269.592 269.592 0 0 1 21.7 84.169 Q 21.984 83.512 22.374 82.615 A 1084.317 1084.317 0 0 1 22.75 81.75 A 1520.477 1520.477 0 0 0 23.118 80.905 Q 23.541 79.934 23.775 79.392 A 137.537 137.537 0 0 0 23.9 79.1 A 96.529 96.529 0 0 1 25.358 76.014 Q 29.4 67.757 41.1 45.9 Q 55.942 18.854 68.967 7.53 A 40.049 40.049 0 0 1 77.3 1.8 A 11.558 11.558 0 0 1 80 0.83 A 9.801 9.801 0 0 1 82.1 0.6 Q 84.9 0.6 84.9 3.2 A 20.692 20.692 0 0 1 84.058 8.874 Q 83.36 11.326 82.082 13.94 A 41.419 41.419 0 0 1 80.8 16.35 Q 76.7 23.5 70.8 29.5 A 142.901 142.901 0 0 1 64.242 35.776 A 113.577 113.577 0 0 1 59.25 40 A 114.175 114.175 0 0 1 55.549 42.834 Q 52.191 45.291 49.5 46.8 A 1.809 1.809 0 0 0 48.934 47.118 Q 48.654 47.345 48.4 47.7 Q 44 54.8 39.8 62.95 Q 36.338 69.668 34.303 74.042 A 126.643 126.643 0 0 0 33.5 75.8 Z M 114.6 86.2 L 113.4 88.5 A 12.302 12.302 0 0 1 111.547 91.193 A 16.51 16.51 0 0 1 109.7 92.95 Q 107.2 95 104.5 95 A 4.204 4.204 0 0 1 104.033 94.977 Q 103.1 94.872 103.1 94.3 Q 103.1 93.812 103.664 92.46 A 28.571 28.571 0 0 1 103.95 91.8 Q 104.787 89.931 105.962 87.673 A 106.264 106.264 0 0 1 106 87.6 Q 107.2 85.3 108.4 83.1 A 695.493 695.493 0 0 0 108.975 82.044 Q 109.8 80.525 110.4 79.4 L 111.3 77.9 L 121.8 59.6 Q 126.269 51.175 131.06 48.923 A 8.245 8.245 0 0 1 134.6 48.1 Q 135.5 48.1 135.5 48.8 A 1.608 1.608 0 0 1 135.349 49.333 Q 134.689 50.922 131.15 56.25 A 239.682 239.682 0 0 0 129.647 58.54 Q 126.669 63.138 126.1 64.6 A 19.684 19.684 0 0 0 126.032 64.808 Q 125.918 65.163 125.903 65.272 A 0.209 0.209 0 0 0 125.9 65.3 Q 125.9 65.5 126.1 65.5 Q 126.3 65.5 126.8 65 A 121.244 121.244 0 0 1 141.637 50.746 A 111.804 111.804 0 0 1 142.7 49.9 Q 143.163 49.438 144.654 48.589 A 36.604 36.604 0 0 1 144.9 48.45 A 9.714 9.714 0 0 1 145.973 47.929 Q 146.533 47.702 147.042 47.595 A 4.183 4.183 0 0 1 147.9 47.5 A 1.567 1.567 0 0 1 149.396 48.459 Q 149.8 49.279 149.8 50.8 Q 149.8 53.381 148.567 56.681 A 33.007 33.007 0 0 1 147.4 59.4 Q 145 64.4 140.9 68.2 L 140.5 68.6 Q 140.1 68.9 139.65 69.25 Q 139.2 69.6 138.5 70.1 A 10.874 10.874 0 0 1 137.472 70.754 A 9.454 9.454 0 0 1 137.1 70.95 A 15.1 15.1 0 0 1 135.994 71.447 A 17.235 17.235 0 0 1 135.6 71.6 A 5.062 5.062 0 0 1 134.872 71.816 A 3.727 3.727 0 0 1 134.1 71.9 A 1.568 1.568 0 0 1 133.811 71.876 Q 133.3 71.78 133.3 71.3 Q 133.3 71.047 133.515 70.65 A 3.862 3.862 0 0 1 133.6 70.5 Q 138.528 62.816 139.34 59.178 A 5.94 5.94 0 0 0 139.5 57.9 Q 139.5 57 138.8 57 Q 135.8 57 124.7 70.6 Q 121.4 74.8 118.55 79.3 A 131.175 131.175 0 0 0 117.234 81.419 Q 115.886 83.641 115.084 85.207 A 25.572 25.572 0 0 0 114.6 86.2 Z M 118.143 65.808 A 587.322 587.322 0 0 0 118.5 65.4 A 1.997 1.997 0 0 1 118.635 65.276 Q 118.774 65.161 118.888 65.121 A 0.341 0.341 0 0 1 119 65.1 A 0.16 0.16 0 0 1 119.149 65.199 Q 119.189 65.277 119.198 65.416 A 1.347 1.347 0 0 1 119.2 65.5 A 5.089 5.089 0 0 1 118.614 67.836 A 7.379 7.379 0 0 1 117.7 69.2 Q 110.3 77.4 104.6 82.9 A 58.236 58.236 0 0 1 99.369 87.515 A 74.018 74.018 0 0 1 94.6 90.95 A 36.631 36.631 0 0 1 91.578 92.768 Q 88.451 94.433 86.034 94.734 A 8.364 8.364 0 0 1 85 94.8 A 4.605 4.605 0 0 1 82.802 94.308 Q 80.9 93.293 80.504 90.182 A 14.148 14.148 0 0 1 80.4 88.4 Q 80.4 77.8 88.25 66.2 A 51.796 51.796 0 0 1 94.757 58.282 Q 100.123 52.999 106.4 50.5 A 26.758 26.758 0 0 1 109.7 49.352 Q 111.421 48.884 112.993 48.752 A 14.46 14.46 0 0 1 114.2 48.7 A 7.201 7.201 0 0 1 115.624 48.828 Q 117.831 49.276 118.071 51.287 A 4.338 4.338 0 0 1 118.1 51.8 Q 118.1 56.753 112.121 62.945 A 49.944 49.944 0 0 1 109.9 65.1 Q 101.7 72.6 91.5 76.5 Q 91.114 76.597 90.822 77.158 A 2.781 2.781 0 0 0 90.8 77.2 A 28.831 28.831 0 0 0 89.857 80.266 Q 89.3 82.55 89.3 84.5 A 7.055 7.055 0 0 0 89.409 85.803 Q 89.843 88.1 92 88.1 A 7.943 7.943 0 0 0 94.791 87.528 Q 97.301 86.578 100.464 84.056 A 50.088 50.088 0 0 0 103.3 81.6 Q 108.504 76.789 118.143 65.808 Z M 5.4 77.2 L 7.2 74 A 745.83 745.83 0 0 1 10.769 67.819 Q 15.775 59.25 18.7 54.9 Q 20.4 52.4 23.05 50.65 Q 25.021 49.349 26.798 49.015 A 6.507 6.507 0 0 1 28 48.9 A 1.33 1.33 0 0 1 28.302 48.932 Q 28.714 49.028 28.785 49.422 A 1.002 1.002 0 0 1 28.8 49.6 Q 28.8 50.1 28.1 51.5 A 165.093 165.093 0 0 1 27.527 52.54 Q 26.019 55.257 22.2 62 Q 18.175 69.109 16.937 71.376 A 57.245 57.245 0 0 0 16.6 72 Q 12.5 79.2 12.5 81.6 Q 12.5 82.467 13.057 82.499 A 0.758 0.758 0 0 0 13.1 82.5 A 1.291 1.291 0 0 0 13.63 82.325 Q 14.852 81.697 18.05 78.825 A 130.52 130.52 0 0 0 19.5 77.5 Q 22.716 74.285 27.514 68.9 A 469.371 469.371 0 0 0 30.6 65.4 A 1.997 1.997 0 0 1 30.735 65.276 Q 30.874 65.161 30.988 65.121 A 0.341 0.341 0 0 1 31.1 65.1 A 0.16 0.16 0 0 1 31.249 65.199 Q 31.289 65.277 31.298 65.416 A 1.347 1.347 0 0 1 31.3 65.5 A 5.089 5.089 0 0 1 30.714 67.836 A 7.379 7.379 0 0 1 29.8 69.2 Q 22.4 77.4 16.7 82.9 A 177.579 177.579 0 0 1 12.608 86.639 Q 4.6 93.707 1.847 93.895 A 2.152 2.152 0 0 1 1.7 93.9 A 1.756 1.756 0 0 1 0.907 93.733 Q 0.172 93.366 0.033 92.192 A 5.041 5.041 0 0 1 0 91.6 A 8.55 8.55 0 0 1 0.142 90.141 Q 0.414 88.591 1.203 86.437 A 44.439 44.439 0 0 1 1.8 84.9 Q 3.481 80.793 5.161 77.644 A 55.036 55.036 0 0 1 5.4 77.2 Z M 50.2 43.9 Q 57.3 38.9 62.95 32.55 A 89.94 89.94 0 0 0 66.808 27.929 Q 69.706 24.194 71.55 20.85 Q 74.5 15.5 76 11.6 A 45.227 45.227 0 0 0 76.639 9.84 Q 77.475 7.362 77.499 6.075 A 4.019 4.019 0 0 0 77.5 6 A 2.115 2.115 0 0 0 77.473 5.648 Q 77.367 5.023 76.838 5.001 A 0.941 0.941 0 0 0 76.8 5 A 2.585 2.585 0 0 0 75.829 5.211 Q 75.008 5.545 74.028 6.409 A 13.769 13.769 0 0 0 73.4 7 Q 69.684 10.716 65.012 17.683 A 140.358 140.358 0 0 0 64.8 18 A 309.838 309.838 0 0 0 61.46 23.112 Q 58.894 27.132 57.05 30.35 Q 54.411 34.957 50.372 42.325 A 1517.192 1517.192 0 0 0 49.4 44.1 A 1.703 1.703 0 0 0 50.013 43.983 A 2.091 2.091 0 0 0 50.2 43.9 Z M 105.5 53.8 L 105 54.2 Q 101.9 56.9 97.25 64.05 A 105.351 105.351 0 0 0 95.67 66.551 Q 92.613 71.555 92.6 73.187 A 1.741 1.741 0 0 0 92.6 73.2 A 1.201 1.201 0 0 0 92.607 73.334 Q 92.637 73.6 92.8 73.6 A 1.487 1.487 0 0 0 93.132 73.553 Q 93.672 73.424 94.715 72.948 A 31.427 31.427 0 0 0 95.45 72.6 A 9.806 9.806 0 0 0 96.588 71.932 Q 98.422 70.703 101.225 68.021 A 80.411 80.411 0 0 0 101.35 67.9 A 29.053 29.053 0 0 0 106.053 61.962 A 35.933 35.933 0 0 0 107.8 58.7 A 15.319 15.319 0 0 0 108.483 57.053 Q 109 55.547 109 54.3 A 3.83 3.83 0 0 0 108.965 53.757 Q 108.813 52.7 108 52.7 Q 107.4 52.7 106.65 53.05 Q 105.9 53.4 105.5 53.8 Z M 27.5 40.2 A 6.458 6.458 0 0 0 27.513 40.618 Q 27.68 43.2 30 43.2 A 5.051 5.051 0 0 0 31.554 42.955 Q 32.535 42.64 33.471 41.919 A 9.955 9.955 0 0 0 34.9 40.55 Q 35.798 39.515 36.346 38.457 A 7.231 7.231 0 0 0 37.2 35.1 A 7.358 7.358 0 0 0 37.197 34.894 Q 37.129 32.473 35.441 31.887 A 3.782 3.782 0 0 0 34.2 31.7 Q 32.403 31.7 30.813 33.173 A 9.759 9.759 0 0 0 29.6 34.55 Q 27.5 37.4 27.5 40.2 Z" vector-effect="non-scaling-stroke"/></g></svg>